<mxfile host="65bd71144e">
    <diagram id="8vjHJ4axGmFvY8kjnef4" name="Page-1">
        <mxGraphModel dx="2298" dy="1748" grid="1" gridSize="10" guides="1" tooltips="1" connect="1" arrows="1" fold="1" page="1" pageScale="1" pageWidth="850" pageHeight="1100" math="0" shadow="0">
            <root>
                <mxCell id="0"/>
                <mxCell id="1" parent="0"/>
                <mxCell id="29" value="Diagram Heading" style="shape=umlFrame;whiteSpace=wrap;html=1;pointerEvents=0;recursiveResize=0;container=1;collapsible=0;width=160;" vertex="1" parent="1">
                    <mxGeometry x="-835" y="-710" width="820" height="500" as="geometry"/>
                </mxCell>
                <mxCell id="4" value="&lt;p style=&quot;margin:0px;margin-top:4px;text-align:center;&quot;&gt;&lt;i&gt;&amp;lt;&amp;lt;Interface&amp;gt;&amp;gt;&lt;/i&gt;&lt;br&gt;&lt;b&gt;WaponBehaivior&lt;/b&gt;&lt;/p&gt;&lt;hr size=&quot;1&quot; style=&quot;border-style:solid;&quot;&gt;&lt;p style=&quot;margin:0px;margin-left:4px;&quot;&gt;&lt;/p&gt;&lt;p style=&quot;margin:0px;margin-left:4px;&quot;&gt;+ useWeapon(): void&lt;br&gt;&lt;br&gt;&lt;/p&gt;" style="verticalAlign=top;align=left;overflow=fill;html=1;whiteSpace=wrap;" vertex="1" parent="29">
                    <mxGeometry x="235" y="260" width="190" height="80" as="geometry"/>
                </mxCell>
                <mxCell id="5" value="Character" style="swimlane;fontStyle=1;align=center;verticalAlign=top;childLayout=stackLayout;horizontal=1;startSize=26;horizontalStack=0;resizeParent=1;resizeParentMax=0;resizeLast=0;collapsible=1;marginBottom=0;whiteSpace=wrap;html=1;" vertex="1" parent="29">
                    <mxGeometry x="360" y="50" width="220" height="120" as="geometry"/>
                </mxCell>
                <mxCell id="6" value="+ weaponBehavior: WeaponBehavior" style="text;strokeColor=none;fillColor=none;align=left;verticalAlign=top;spacingLeft=4;spacingRight=4;overflow=hidden;rotatable=0;points=[[0,0.5],[1,0.5]];portConstraint=eastwest;whiteSpace=wrap;html=1;" vertex="1" parent="5">
                    <mxGeometry y="26" width="220" height="26" as="geometry"/>
                </mxCell>
                <mxCell id="7" value="" style="line;strokeWidth=1;fillColor=none;align=left;verticalAlign=middle;spacingTop=-1;spacingLeft=3;spacingRight=3;rotatable=0;labelPosition=right;points=[];portConstraint=eastwest;strokeColor=inherit;" vertex="1" parent="5">
                    <mxGeometry y="52" width="220" height="8" as="geometry"/>
                </mxCell>
                <mxCell id="8" value="+ fight(): void&lt;div&gt;+ setWeapon(WeaponBehavior):void&lt;/div&gt;&lt;div&gt;&lt;br&gt;&lt;/div&gt;" style="text;strokeColor=none;fillColor=none;align=left;verticalAlign=top;spacingLeft=4;spacingRight=4;overflow=hidden;rotatable=0;points=[[0,0.5],[1,0.5]];portConstraint=eastwest;whiteSpace=wrap;html=1;" vertex="1" parent="5">
                    <mxGeometry y="60" width="220" height="60" as="geometry"/>
                </mxCell>
                <mxCell id="9" style="edgeStyle=none;html=1;entryX=0.5;entryY=0;entryDx=0;entryDy=0;exitX=0;exitY=0.5;exitDx=0;exitDy=0;" edge="1" parent="29" source="6" target="4">
                    <mxGeometry relative="1" as="geometry">
                        <Array as="points">
                            <mxPoint x="330" y="90"/>
                        </Array>
                    </mxGeometry>
                </mxCell>
                <mxCell id="12" value="&lt;p style=&quot;margin:0px;margin-top:4px;text-align:center;&quot;&gt;&lt;b&gt;KnifeBehaivior&lt;/b&gt;&lt;/p&gt;&lt;hr size=&quot;1&quot; style=&quot;border-style:solid;&quot;&gt;&lt;div style=&quot;height:2px;&quot;&gt;&amp;nbsp;+ useWeapon():void&lt;/div&gt;" style="verticalAlign=top;align=left;overflow=fill;html=1;whiteSpace=wrap;" vertex="1" parent="29">
                    <mxGeometry y="380" width="200" height="90" as="geometry"/>
                </mxCell>
                <mxCell id="14" value="&lt;p style=&quot;margin:0px;margin-top:4px;text-align:center;&quot;&gt;&lt;b&gt;KnifeBehaivior&lt;/b&gt;&lt;/p&gt;&lt;hr size=&quot;1&quot; style=&quot;border-style:solid;&quot;&gt;&lt;div style=&quot;height:2px;&quot;&gt;&amp;nbsp;+ useWeapon():void&lt;/div&gt;" style="verticalAlign=top;align=left;overflow=fill;html=1;whiteSpace=wrap;" vertex="1" parent="29">
                    <mxGeometry x="230" y="380" width="200" height="90" as="geometry"/>
                </mxCell>
                <mxCell id="22" value="&lt;p style=&quot;margin:0px;margin-top:4px;text-align:center;&quot;&gt;&lt;b&gt;AxeBehavior&lt;/b&gt;&lt;/p&gt;&lt;hr size=&quot;1&quot; style=&quot;border-style:solid;&quot;&gt;&lt;div style=&quot;height:2px;&quot;&gt;&lt;span style=&quot;color: rgb(63, 63, 63);&quot;&gt;+ useWeapon():void&lt;/span&gt;&lt;/div&gt;" style="verticalAlign=top;align=left;overflow=fill;html=1;whiteSpace=wrap;" vertex="1" parent="29">
                    <mxGeometry x="460" y="380" width="200" height="90" as="geometry"/>
                </mxCell>
                <mxCell id="31" value="" style="endArrow=block;dashed=1;endFill=0;endSize=12;html=1;entryX=0.466;entryY=1.018;entryDx=0;entryDy=0;entryPerimeter=0;" edge="1" parent="29" source="12" target="4">
                    <mxGeometry width="160" relative="1" as="geometry">
                        <mxPoint x="320" y="280" as="sourcePoint"/>
                        <mxPoint x="480" y="280" as="targetPoint"/>
                    </mxGeometry>
                </mxCell>
                <mxCell id="32" value="" style="endArrow=block;dashed=1;endFill=0;endSize=12;html=1;entryX=0.5;entryY=1;entryDx=0;entryDy=0;exitX=0.5;exitY=0;exitDx=0;exitDy=0;" edge="1" parent="29" source="14" target="4">
                    <mxGeometry width="160" relative="1" as="geometry">
                        <mxPoint x="164" y="390" as="sourcePoint"/>
                        <mxPoint x="259" y="311" as="targetPoint"/>
                    </mxGeometry>
                </mxCell>
                <mxCell id="34" value="" style="endArrow=block;dashed=1;endFill=0;endSize=12;html=1;entryX=0.808;entryY=1.003;entryDx=0;entryDy=0;entryPerimeter=0;exitX=0.5;exitY=0;exitDx=0;exitDy=0;" edge="1" parent="29" source="22" target="4">
                    <mxGeometry width="160" relative="1" as="geometry">
                        <mxPoint x="340" y="390" as="sourcePoint"/>
                        <mxPoint x="265" y="310" as="targetPoint"/>
                    </mxGeometry>
                </mxCell>
                <mxCell id="37" value="&lt;p style=&quot;margin:0px;margin-top:4px;text-align:center;&quot;&gt;Queen&lt;/p&gt;&lt;hr size=&quot;1&quot; style=&quot;border-style:solid;&quot;&gt;&lt;div style=&quot;height:2px;&quot;&gt;fight(){...}&lt;/div&gt;" style="verticalAlign=top;align=left;overflow=fill;html=1;whiteSpace=wrap;" vertex="1" parent="29">
                    <mxGeometry x="690" y="40" width="111" height="90" as="geometry"/>
                </mxCell>
                <mxCell id="39" value="&lt;p style=&quot;margin:0px;margin-top:4px;text-align:center;&quot;&gt;King&lt;/p&gt;&lt;hr size=&quot;1&quot; style=&quot;border-style:solid;&quot;&gt;&lt;div style=&quot;height:2px;&quot;&gt;fight(){...}&lt;/div&gt;" style="verticalAlign=top;align=left;overflow=fill;html=1;whiteSpace=wrap;" vertex="1" parent="29">
                    <mxGeometry x="690" y="150" width="111" height="90" as="geometry"/>
                </mxCell>
                <mxCell id="40" value="&lt;p style=&quot;margin:0px;margin-top:4px;text-align:center;&quot;&gt;Knight&lt;/p&gt;&lt;hr size=&quot;1&quot; style=&quot;border-style:solid;&quot;&gt;&lt;div style=&quot;height:2px;&quot;&gt;fight(){...}&lt;/div&gt;" style="verticalAlign=top;align=left;overflow=fill;html=1;whiteSpace=wrap;" vertex="1" parent="29">
                    <mxGeometry x="690" y="260" width="111" height="90" as="geometry"/>
                </mxCell>
                <mxCell id="41" value="&lt;p style=&quot;margin:0px;margin-top:4px;text-align:center;&quot;&gt;Troll&lt;/p&gt;&lt;hr size=&quot;1&quot; style=&quot;border-style:solid;&quot;&gt;&lt;div style=&quot;height:2px;&quot;&gt;fight(){...}&lt;/div&gt;" style="verticalAlign=top;align=left;overflow=fill;html=1;whiteSpace=wrap;" vertex="1" parent="29">
                    <mxGeometry x="690" y="380" width="111" height="90" as="geometry"/>
                </mxCell>
                <mxCell id="38" value="Extends" style="endArrow=block;endSize=16;endFill=0;html=1;exitX=0;exitY=0.5;exitDx=0;exitDy=0;" edge="1" parent="29" source="37" target="5">
                    <mxGeometry width="160" relative="1" as="geometry">
                        <mxPoint x="690" y="200" as="sourcePoint"/>
                        <mxPoint x="850" y="200" as="targetPoint"/>
                    </mxGeometry>
                </mxCell>
                <mxCell id="44" value="Extends" style="endArrow=block;endSize=16;endFill=0;html=1;" edge="1" parent="29" source="39" target="5">
                    <mxGeometry width="160" relative="1" as="geometry">
                        <mxPoint x="850" y="105" as="sourcePoint"/>
                        <mxPoint x="590" y="116" as="targetPoint"/>
                    </mxGeometry>
                </mxCell>
                <mxCell id="45" value="Extends" style="endArrow=block;endSize=16;endFill=0;html=1;" edge="1" parent="29" source="40" target="5">
                    <mxGeometry width="160" relative="1" as="geometry">
                        <mxPoint x="850" y="203" as="sourcePoint"/>
                        <mxPoint x="590" y="145" as="targetPoint"/>
                    </mxGeometry>
                </mxCell>
                <mxCell id="46" value="Extends" style="endArrow=block;endSize=16;endFill=0;html=1;" edge="1" parent="29" source="41" target="5">
                    <mxGeometry width="160" relative="1" as="geometry">
                        <mxPoint x="850" y="298" as="sourcePoint"/>
                        <mxPoint x="590" y="173" as="targetPoint"/>
                    </mxGeometry>
                </mxCell>
            </root>
        </mxGraphModel>
    </diagram>
</mxfile>